<svg xmlns="http://www.w3.org/2000/svg" width="40" height="40" viewBox="0 0 40 40">
    <g fill="none" fill-rule="evenodd" transform="translate(3 2)">
        <path fill="#FFF" d="M17,5 C15.8954305,5 15,4.1045695 15,3 C15,1.8954305 15.8954305,1 17,1 C18.1045695,1 19,1.8954305 19,3 C19,4.1045695 18.1045695,5 17,5 Z M31,11 C29.8954305,11 29,10.1045695 29,9 C29,7.8954305 29.8954305,7 31,7 C32.1045695,7 33,7.8954305 33,9 C33,10.1045695 32.1045695,11 31,11 Z M31,29 C29.8954305,29 29,28.1045695 29,27 C29,25.8954305 29.8954305,25 31,25 C32.1045695,25 33,25.8954305 33,27 C33,28.1045695 32.1045695,29 31,29 Z M17,35 C15.8954305,35 15,34.1045695 15,33 C15,31.8954305 15.8954305,31 17,31 C18.1045695,31 19,31.8954305 19,33 C19,34.1045695 18.1045695,35 17,35 Z M3,29 C1.8954305,29 1,28.1045695 1,27 C1,25.8954305 1.8954305,25 3,25 C4.1045695,25 5,25.8954305 5,27 C5,28.1045695 4.1045695,29 3,29 Z M3,11 C1.8954305,11 1,10.1045695 1,9 C1,7.8954305 1.8954305,7 3,7 C4.1045695,7 5,7.8954305 5,9 C5,10.1045695 4.1045695,11 3,11 Z M9.01464844,13 L17,9.10557281 L25.1047363,13 L25.1047363,23 L17.0001527,27 L9.01464844,23 L9.01464844,13 Z"/>
        <path fill="#2FA3FF" d="M18,27.5555556 L18,30.1707057 C19.1651924,30.5825421 20,31.6937812 20,33 C20,34.6568542 18.6568542,36 17,36 C15.3431458,36 14,34.6568542 14,33 C14,31.6937812 14.8348076,30.5825421 16,30.1707057 L16,27.5555556 L9.18380069,24.5261336 L5.88525235,26.1754078 C5.95998635,26.4373973 6,26.7140258 6,27 C6,28.6568542 4.65685425,30 3,30 C1.34314575,30 0,28.6568542 0,27 C-8.8817842e-16,25.3431458 1.34314575,24 3,24 C3.63267651,24 4.2196104,24.1958475 4.70348352,24.5302243 L8,22.881966 L8,13.118034 L4.70348352,11.4697757 C4.2196104,11.8041525 3.63267651,12 3,12 C1.34314575,12 0,10.6568542 0,9 C-8.8817842e-16,7.34314575 1.34314575,6 3,6 C4.65685425,6 6,7.34314575 6,9 C6,9.28597419 5.95998635,9.56260269 5.88525235,9.82459219 L9.18380069,11.4738664 L16,8.44444444 L16,5.82929429 C14.8348076,5.41745788 14,4.30621883 14,3 C14,1.34314575 15.3431458,8.8817842e-16 17,0 C18.6568542,0 20,1.34314575 20,3 C20,4.30621883 19.1651924,5.41745788 18,5.82929429 L18,8.44444444 L24.8161993,11.4738664 L28.1147476,9.82459219 C28.0400137,9.56260269 28,9.28597419 28,9 C28,7.34314575 29.3431458,6 31,6 C32.6568542,6 34,7.34314575 34,9 C34,10.6568542 32.6568542,12 31,12 C30.3673235,12 29.7803896,11.8041525 29.2965165,11.4697757 L26,13.118034 L26,22.881966 L29.2965165,24.5302243 C29.7803896,24.1958475 30.3673235,24 31,24 C32.6568542,24 34,25.3431458 34,27 C34,28.6568542 32.6568542,30 31,30 C29.3431458,30 28,28.6568542 28,27 C28,26.7140258 28.0400137,26.4373973 28.1147476,26.1754078 L24.8161993,24.5261336 L18,27.5555556 Z M10,22.7002538 L17,25.8113649 L24,22.7002538 L24,13.2997462 L17,10.1886351 L10,13.2997462 L10,22.7002538 Z M17,34 C17.5522847,34 18,33.5522847 18,33 C18,32.4477153 17.5522847,32 17,32 C16.4477153,32 16,32.4477153 16,33 C16,33.5522847 16.4477153,34 17,34 Z M17,2 C16.4477153,2 16,2.44771525 16,3 C16,3.55228475 16.4477153,4 17,4 C17.5522847,4 18,3.55228475 18,3 C18,2.44771525 17.5522847,2 17,2 Z M31,8 C30.4477153,8 30,8.44771525 30,9 C30,9.55228475 30.4477153,10 31,10 C31.5522847,10 32,9.55228475 32,9 C32,8.44771525 31.5522847,8 31,8 Z M31,26 C30.4477153,26 30,26.4477153 30,27 C30,27.5522847 30.4477153,28 31,28 C31.5522847,28 32,27.5522847 32,27 C32,26.4477153 31.5522847,26 31,26 Z M3,8 C2.44771525,8 2,8.44771525 2,9 C2,9.55228475 2.44771525,10 3,10 C3.55228475,10 4,9.55228475 4,9 C4,8.44771525 3.55228475,8 3,8 Z M3,26 C2.44771525,26 2,26.4477153 2,27 C2,27.5522847 2.44771525,28 3,28 C3.55228475,28 4,27.5522847 4,27 C4,26.4477153 3.55228475,26 3,26 Z"/>
        <g transform="translate(12.5 12)">
            <path fill="#EEA938" d="M2.45444285 4.5C1.92731862 4.5 1.5 4.92731862 1.5 5.45444285L1.5 7.5C1.5 9.15685425 2.84314575 10.5 4.5 10.5 6.15685425 10.5 7.5 9.15685425 7.5 7.5L7.5 5.45444285C7.5 4.92731862 7.07268138 4.5 6.54555715 4.5L2.45444285 4.5zM1.51056147 4.17572951C1.50358394 4.20200222 1.50001651 4.22970666 1.50001651 4.25762087 1.50001651 4.39148317 1.58030075 4.5 1.67933638 4.5L7.32064778 4.5C7.34129962 4.5 7.36179625 4.49517805 7.38123365 4.48574682 7.47444546 4.44051946 7.52288334 4.30171999 7.48942269 4.17572951 7.22245144 3.17049389 6.51733509 2.5 5.72716314 2.5L3.27282103 2.5C2.48264907 2.5 1.77753272 3.17049389 1.51056147 4.17572951z"/>
            <path fill="#000" d="M5,9.94999094 C6.14112016,9.71835578 7,8.70947896 7,7.5 L7,5.79536904 C7,5.35609885 6.64390115,5 6.20463096,5 L2.79536904,5 C2.35609885,5 2,5.35609885 2,5.79536904 L2,7.5 C2,8.70947896 2.85887984,9.71835578 4,9.94999094 L4,5 L5,5 L5,9.94999094 Z M5.13993927,1.14296727 L6.72194995,0.0844423378 C6.95145611,-0.0691204636 7.26199486,-0.00755620784 7.41555766,0.221949952 C7.56912046,0.451456111 7.50755621,0.761994861 7.27805005,0.915557662 L5.85928656,1.86485374 C5.89219188,1.93515403 5.91980406,2.00842667 5.94161013,2.0841587 C6.63553437,2.27896024 7.2096808,2.7983965 7.46153846,3.5 C7.51895013,3.65993252 7.53780002,3.82432703 7.52288498,3.98301417 C7.79653297,3.91768722 8,3.67155192 8,3.37789435 L8,2.5 C8,2.22385763 8.22385763,2 8.5,2 C8.77614237,2 9,2.22385763 9,2.5 L9,3.37789435 C9,4.13217748 8.48516811,4.76621518 7.78773092,4.94778087 C7.92317595,5.20023166 8,5.48882874 8,5.79536904 L8,6 L8.5,6 C8.77614237,6 9,6.22385763 9,6.5 C9,6.77614237 8.77614237,7 8.5,7 L8,7 L8,7.5 C8,7.70565959 7.98226196,7.90717624 7.94823231,8.10310351 C8.56272525,8.33393552 9,8.92695509 9,9.62210565 L9,10.5 C9,10.7761424 8.77614237,11 8.5,11 C8.22385763,11 8,10.7761424 8,10.5 L8,9.62210565 C8,9.37060768 7.85076159,9.15396621 7.6360116,9.05590806 C7.06322661,10.2081648 5.87408482,11 4.5,11 C3.12591518,11 1.93677339,10.2081648 1.3639884,9.05590806 C1.14923841,9.15396621 1,9.37060768 1,9.62210565 L1,10.5 C1,10.7761424 0.776142375,11 0.5,11 C0.223857625,11 0,10.7761424 0,10.5 L0,9.62210565 C0,8.92695509 0.437274752,8.33393552 1.05176769,8.10310351 C1.01773804,7.90717624 1,7.70565959 1,7.5 L1,7 L0.5,7 C0.223857625,7 3.38176876e-17,6.77614237 0,6.5 C-3.38176876e-17,6.22385763 0.223857625,6 0.5,6 L1,6 L1,5.79536904 C1,5.48882874 1.07682405,5.20023166 1.21226908,4.94778087 C0.514831891,4.76621518 0,4.13217748 0,3.37789435 L0,2.5 C0,2.22385763 0.223857625,2 0.5,2 C0.776142375,2 1,2.22385763 1,2.5 L1,3.37789435 C1,3.67162245 1.20356478,3.91780545 1.4773122,3.98306121 C1.47414727,3.9487357 1.47252962,3.91396198 1.47252962,3.87881044 C1.47252962,3.74968575 1.49483486,3.62153146 1.53846154,3.5 C1.7903192,2.7983965 2.36446563,2.27896024 3.05838987,2.0841587 C3.08019594,2.00842667 3.10780812,1.93515403 3.14071344,1.86485374 L1.72194995,0.915557662 C1.49244379,0.761994861 1.43087954,0.451456111 1.58444234,0.221949952 C1.73800514,-0.00755620784 2.04854389,-0.0691204636 2.27805005,0.0844423378 L3.86006073,1.14296727 C4.05415838,1.05127546 4.27109118,1 4.5,1 C4.72890882,1 4.94584162,1.05127546 5.13993927,1.14296727 Z M2.47965621,3.83786475 C2.47494059,3.85100111 2.47252962,3.86485333 2.47252962,3.87881044 C2.47252962,3.94574158 2.52678803,4 2.59371918,4 L6.40628082,4 C6.42023793,4 6.43409015,3.99758902 6.4472265,3.99287341 C6.51022174,3.97025973 6.54295747,3.90085999 6.52034379,3.83786475 C6.33991689,3.33524695 5.86337883,3 5.32935774,3 L3.67064226,3 C3.13662117,3 2.66008311,3.33524695 2.47965621,3.83786475 Z"/>
        </g>
    </g>
</svg>
